<svg xmlns="http://www.w3.org/2000/svg" width="1000" height="700" viewBox="0 0 1000 700" font-family="Segoe UI, Arial, sans-serif">

  <!-- Fondo -->
  <rect width="1000" height="700" fill="#0d1117" rx="16"/>

  <!-- Título -->
  <text x="500" y="44" text-anchor="middle" fill="#e6c97a" font-size="22" font-weight="bold">ACAXEE — Visión de Plataforma</text>
  <text x="500" y="68" text-anchor="middle" fill="#8b9099" font-size="13">SKY TROPIC DINING · BucksandBrainsAI</text>

  <!-- ══════════════════════════════════════ -->
  <!-- CAPA 1: CANALES -->
  <!-- ══════════════════════════════════════ -->
  <text x="500" y="96" text-anchor="middle" fill="#4a90d9" font-size="11" font-weight="bold" letter-spacing="2">CANALES DE ENTRADA</text>

  <!-- Telegram (activo) -->
  <rect x="52" y="106" width="130" height="50" rx="9" fill="#1c2333" stroke="#4a90d9" stroke-width="2"/>
  <text x="117" y="126" text-anchor="middle" fill="#4a90d9" font-size="11" font-weight="bold">Telegram</text>
  <text x="117" y="146" text-anchor="middle" fill="#50c878" font-size="10">● Operativo</text>

  <!-- WhatsApp -->
  <rect x="206" y="106" width="130" height="50" rx="9" fill="#1c2333" stroke="#555e6a" stroke-width="1.5" stroke-dasharray="5,3"/>
  <text x="271" y="126" text-anchor="middle" fill="#8b9099" font-size="11" font-weight="bold">WhatsApp</text>
  <text x="271" y="146" text-anchor="middle" fill="#e6c97a" font-size="10">◎ Próxima fase</text>

  <!-- Instagram -->
  <rect x="360" y="106" width="130" height="50" rx="9" fill="#1c2333" stroke="#555e6a" stroke-width="1.5" stroke-dasharray="5,3"/>
  <text x="425" y="126" text-anchor="middle" fill="#8b9099" font-size="11" font-weight="bold">Instagram</text>
  <text x="425" y="146" text-anchor="middle" fill="#e6c97a" font-size="10">◎ Próxima fase</text>

  <!-- Web Widget -->
  <rect x="514" y="106" width="130" height="50" rx="9" fill="#1c2333" stroke="#555e6a" stroke-width="1.5" stroke-dasharray="5,3"/>
  <text x="579" y="126" text-anchor="middle" fill="#8b9099" font-size="11" font-weight="bold">Web Chat</text>
  <text x="579" y="146" text-anchor="middle" fill="#e6c97a" font-size="10">◎ Próxima fase</text>

  <!-- App CRM -->
  <rect x="668" y="106" width="130" height="50" rx="9" fill="#1c2333" stroke="#555e6a" stroke-width="1.5" stroke-dasharray="5,3"/>
  <text x="733" y="126" text-anchor="middle" fill="#8b9099" font-size="11" font-weight="bold">App CRM</text>
  <text x="733" y="146" text-anchor="middle" fill="#e6c97a" font-size="10">◎ A definir</text>

  <!-- Flechas canales → orquestador -->
  <line x1="117" y1="156" x2="370" y2="196" stroke="#4a90d9" stroke-width="1.5" marker-end="url(#fa)"/>
  <line x1="271" y1="156" x2="420" y2="196" stroke="#555e6a" stroke-width="1" stroke-dasharray="4,3" marker-end="url(#fb)"/>
  <line x1="425" y1="156" x2="460" y2="196" stroke="#555e6a" stroke-width="1" stroke-dasharray="4,3" marker-end="url(#fb)"/>
  <line x1="579" y1="156" x2="510" y2="196" stroke="#555e6a" stroke-width="1" stroke-dasharray="4,3" marker-end="url(#fb)"/>
  <line x1="733" y1="156" x2="570" y2="196" stroke="#555e6a" stroke-width="1" stroke-dasharray="4,3" marker-end="url(#fb)"/>

  <!-- ══════════════════════════════════════ -->
  <!-- CAPA 2: AGENTE -->
  <!-- ══════════════════════════════════════ -->
  <rect x="220" y="196" width="560" height="72" rx="10" fill="#1c2333" stroke="#e6c97a" stroke-width="2"/>
  <text x="500" y="218" text-anchor="middle" fill="#e6c97a" font-size="12" font-weight="bold">AGENTE CONVERSACIONAL INTELIGENTE</text>
  <text x="500" y="238" text-anchor="middle" fill="#cdd6e0" font-size="12">Orquestador · LLM (GitHub Models) · Parser JSON · Contexto</text>
  <text x="500" y="256" text-anchor="middle" fill="#8b9099" font-size="11">Python · Render · GitHub CI/CD · Instancia única garantizada</text>

  <!-- flecha agente → servicios -->
  <line x1="500" y1="268" x2="500" y2="300" stroke="#e6c97a" stroke-width="2" marker-end="url(#fc)"/>

  <!-- ══════════════════════════════════════ -->
  <!-- CAPA 3: SERVICIOS -->
  <!-- ══════════════════════════════════════ -->
  <text x="500" y="296" text-anchor="middle" fill="#50c878" font-size="11" font-weight="bold" letter-spacing="2">SERVICIOS</text>

  <!-- Servicios activos -->
  <rect x="28" y="306" width="148" height="72" rx="9" fill="#1a2a1a" stroke="#50c878" stroke-width="2"/>
  <text x="102" y="326" text-anchor="middle" fill="#50c878" font-size="11" font-weight="bold">Reservaciones</text>
  <text x="102" y="344" text-anchor="middle" fill="#cdd6e0" font-size="10">Crear · Cancelar</text>
  <text x="102" y="358" text-anchor="middle" fill="#cdd6e0" font-size="10">Modificar</text>
  <text x="102" y="372" text-anchor="middle" fill="#50c878" font-size="9">● Operativo</text>

  <rect x="188" y="306" width="148" height="72" rx="9" fill="#1a2a1a" stroke="#50c878" stroke-width="2"/>
  <text x="262" y="326" text-anchor="middle" fill="#50c878" font-size="11" font-weight="bold">Disponibilidad</text>
  <text x="262" y="344" text-anchor="middle" fill="#cdd6e0" font-size="10">Consulta por hora</text>
  <text x="262" y="358" text-anchor="middle" fill="#cdd6e0" font-size="10">Alternativas</text>
  <text x="262" y="372" text-anchor="middle" fill="#50c878" font-size="9">● Operativo</text>

  <!-- Servicios futuros -->
  <rect x="348" y="306" width="148" height="72" rx="9" fill="#131920" stroke="#555e6a" stroke-width="1.5" stroke-dasharray="5,3"/>
  <text x="422" y="326" text-anchor="middle" fill="#8b9099" font-size="11" font-weight="bold">Menú</text>
  <text x="422" y="344" text-anchor="middle" fill="#8b9099" font-size="10">Carta · Alérgenos</text>
  <text x="422" y="358" text-anchor="middle" fill="#8b9099" font-size="10">Disponibilidad</text>
  <text x="422" y="372" text-anchor="middle" fill="#e6c97a" font-size="9">◎ Próxima fase</text>

  <rect x="508" y="306" width="148" height="72" rx="9" fill="#131920" stroke="#555e6a" stroke-width="1.5" stroke-dasharray="5,3"/>
  <text x="582" y="326" text-anchor="middle" fill="#8b9099" font-size="11" font-weight="bold">Notificaciones</text>
  <text x="582" y="344" text-anchor="middle" fill="#8b9099" font-size="10">Recordatorios</text>
  <text x="582" y="358" text-anchor="middle" fill="#8b9099" font-size="10">Lista de espera</text>
  <text x="582" y="372" text-anchor="middle" fill="#e6c97a" font-size="9">◎ Próxima fase</text>

  <rect x="668" y="306" width="148" height="72" rx="9" fill="#131920" stroke="#555e6a" stroke-width="1.5" stroke-dasharray="5,3"/>
  <text x="742" y="326" text-anchor="middle" fill="#8b9099" font-size="11" font-weight="bold">Pagos</text>
  <text x="742" y="344" text-anchor="middle" fill="#8b9099" font-size="10">Anticipo</text>
  <text x="742" y="358" text-anchor="middle" fill="#8b9099" font-size="10">Consumo mínimo</text>
  <text x="742" y="372" text-anchor="middle" fill="#e6c97a" font-size="9">◎ Fase avanzada</text>

  <rect x="828" y="306" width="140" height="72" rx="9" fill="#131920" stroke="#555e6a" stroke-width="1.5" stroke-dasharray="5,3"/>
  <text x="898" y="326" text-anchor="middle" fill="#8b9099" font-size="11" font-weight="bold">Solicitudes</text>
  <text x="898" y="344" text-anchor="middle" fill="#8b9099" font-size="10">Eventos</text>
  <text x="898" y="358" text-anchor="middle" fill="#8b9099" font-size="10">Cumpleaños</text>
  <text x="898" y="372" text-anchor="middle" fill="#e6c97a" font-size="9">◎ Fase avanzada</text>

  <!-- flechas servicios → firebase -->
  <line x1="500" y1="378" x2="500" y2="412" stroke="#50c878" stroke-width="2" marker-end="url(#fd)"/>

  <!-- ══════════════════════════════════════ -->
  <!-- CAPA 4: DATOS -->
  <!-- ══════════════════════════════════════ -->
  <rect x="28" y="412" width="944" height="80" rx="10" fill="#1c2333" stroke="#f4845f" stroke-width="2"/>
  <text x="500" y="434" text-anchor="middle" fill="#f4845f" font-size="12" font-weight="bold">FIREBASE — CAPA DE DATOS</text>

  <rect x="46" y="444" width="120" height="36" rx="6" fill="#131920" stroke="#f4845f" stroke-width="1"/>
  <text x="106" y="458" text-anchor="middle" fill="#cdd6e0" font-size="10" font-weight="bold">RTDB</text>
  <text x="106" y="472" text-anchor="middle" fill="#50c878" font-size="9">● Activo</text>

  <rect x="182" y="444" width="120" height="36" rx="6" fill="#131920" stroke="#555e6a" stroke-width="1" stroke-dasharray="4,2"/>
  <text x="242" y="458" text-anchor="middle" fill="#8b9099" font-size="10" font-weight="bold">Firestore</text>
  <text x="242" y="472" text-anchor="middle" fill="#e6c97a" font-size="9">◎ Clientes CRM</text>

  <rect x="318" y="444" width="120" height="36" rx="6" fill="#131920" stroke="#555e6a" stroke-width="1" stroke-dasharray="4,2"/>
  <text x="378" y="458" text-anchor="middle" fill="#8b9099" font-size="10" font-weight="bold">Storage</text>
  <text x="378" y="472" text-anchor="middle" fill="#e6c97a" font-size="9">◎ Medios y menú</text>

  <rect x="454" y="444" width="120" height="36" rx="6" fill="#131920" stroke="#555e6a" stroke-width="1" stroke-dasharray="4,2"/>
  <text x="514" y="458" text-anchor="middle" fill="#8b9099" font-size="10" font-weight="bold">Auth</text>
  <text x="514" y="472" text-anchor="middle" fill="#e6c97a" font-size="9">◎ Equipo CRM</text>

  <rect x="590" y="444" width="120" height="36" rx="6" fill="#131920" stroke="#555e6a" stroke-width="1" stroke-dasharray="4,2"/>
  <text x="650" y="458" text-anchor="middle" fill="#8b9099" font-size="10" font-weight="bold">Analytics</text>
  <text x="650" y="472" text-anchor="middle" fill="#e6c97a" font-size="9">◎ Métricas</text>

  <rect x="726" y="444" width="120" height="36" rx="6" fill="#131920" stroke="#555e6a" stroke-width="1" stroke-dasharray="4,2"/>
  <text x="786" y="458" text-anchor="middle" fill="#8b9099" font-size="10" font-weight="bold">BigQuery</text>
  <text x="786" y="472" text-anchor="middle" fill="#e6c97a" font-size="9">◎ Análisis avanzado</text>

  <rect x="858" y="444" width="102" height="36" rx="6" fill="#131920" stroke="#555e6a" stroke-width="1" stroke-dasharray="4,2"/>
  <text x="909" y="458" text-anchor="middle" fill="#8b9099" font-size="10" font-weight="bold">Pagos API</text>
  <text x="909" y="472" text-anchor="middle" fill="#e6c97a" font-size="9">◎ Fase avanzada</text>

  <!-- ══════════════════════════════════════ -->
  <!-- CAPA 5: CRM / DASHBOARD -->
  <!-- ══════════════════════════════════════ -->
  <line x1="500" y1="492" x2="500" y2="524" stroke="#f4845f" stroke-width="1.5" stroke-dasharray="5,3" marker-end="url(#fe)"/>

  <rect x="140" y="524" width="720" height="100" rx="10" fill="#1c1a2e" stroke="#a78bfa" stroke-width="2" stroke-dasharray="7,3"/>
  <text x="500" y="548" text-anchor="middle" fill="#a78bfa" font-size="12" font-weight="bold">APP CRM / DASHBOARD — ACAXEE MANAGEMENT</text>
  <text x="500" y="566" text-anchor="middle" fill="#8b9099" font-size="11">Stack y tecnología por definir</text>

  <!-- 4 módulos CRM -->
  <rect x="158" y="576" width="148" height="36" rx="7" fill="#1c1a2e" stroke="#a78bfa" stroke-width="1"/>
  <text x="232" y="591" text-anchor="middle" fill="#a78bfa" font-size="11" font-weight="bold">Operaciones</text>
  <text x="232" y="605" text-anchor="middle" fill="#8b9099" font-size="9">Reservas · Control bot</text>

  <rect x="318" y="576" width="148" height="36" rx="7" fill="#1c1a2e" stroke="#a78bfa" stroke-width="1"/>
  <text x="392" y="591" text-anchor="middle" fill="#a78bfa" font-size="11" font-weight="bold">CRM Clientes</text>
  <text x="392" y="605" text-anchor="middle" fill="#8b9099" font-size="9">Perfiles · Historial · VIP</text>

  <rect x="478" y="576" width="148" height="36" rx="7" fill="#1c1a2e" stroke="#a78bfa" stroke-width="1"/>
  <text x="552" y="591" text-anchor="middle" fill="#a78bfa" font-size="11" font-weight="bold">Marketing</text>
  <text x="552" y="605" text-anchor="middle" fill="#8b9099" font-size="9">Campañas · Segmentación</text>

  <rect x="638" y="576" width="148" height="36" rx="7" fill="#1c1a2e" stroke="#a78bfa" stroke-width="1"/>
  <text x="712" y="591" text-anchor="middle" fill="#a78bfa" font-size="11" font-weight="bold">Análisis</text>
  <text x="712" y="605" text-anchor="middle" fill="#8b9099" font-size="9">Métricas · Demanda</text>

  <!-- ══════════════════════════════════════ -->
  <!-- LEYENDA -->
  <!-- ══════════════════════════════════════ -->
  <rect x="28" y="638" width="944" height="42" rx="8" fill="#131920"/>
  <circle cx="68" cy="659" r="5" fill="#50c878"/>
  <text x="80" y="663" fill="#cdd6e0" font-size="11">Operativo hoy</text>
  <circle cx="188" cy="659" r="5" fill="#e6c97a"/>
  <text x="200" y="663" fill="#cdd6e0" font-size="11">Próxima fase</text>
  <circle cx="308" cy="659" r="5" fill="#a78bfa"/>
  <text x="320" y="663" fill="#cdd6e0" font-size="11">CRM / Dashboard</text>
  <circle cx="448" cy="659" r="5" fill="#8b9099"/>
  <text x="460" y="663" fill="#cdd6e0" font-size="11">Fase avanzada</text>
  <line x1="575" y1="659" x2="610" y2="659" stroke="#4a90d9" stroke-width="2"/>
  <text x="618" y="663" fill="#cdd6e0" font-size="11">Flujo activo</text>
  <line x1="700" y1="659" x2="735" y2="659" stroke="#555e6a" stroke-width="1.5" stroke-dasharray="5,3"/>
  <text x="743" y="663" fill="#cdd6e0" font-size="11">Flujo futuro</text>

  <!-- ══════════════════════════════════════ -->
  <!-- MARCADORES DE FLECHA -->
  <!-- ══════════════════════════════════════ -->
  <defs>
    <marker id="fa" markerWidth="8" markerHeight="8" refX="6" refY="3" orient="auto">
      <path d="M0,0 L0,6 L8,3 z" fill="#4a90d9"/>
    </marker>
    <marker id="fb" markerWidth="8" markerHeight="8" refX="6" refY="3" orient="auto">
      <path d="M0,0 L0,6 L8,3 z" fill="#555e6a"/>
    </marker>
    <marker id="fc" markerWidth="8" markerHeight="8" refX="6" refY="3" orient="auto">
      <path d="M0,0 L0,6 L8,3 z" fill="#e6c97a"/>
    </marker>
    <marker id="fd" markerWidth="8" markerHeight="8" refX="6" refY="3" orient="auto">
      <path d="M0,0 L0,6 L8,3 z" fill="#50c878"/>
    </marker>
    <marker id="fe" markerWidth="8" markerHeight="8" refX="6" refY="3" orient="auto">
      <path d="M0,0 L0,6 L8,3 z" fill="#f4845f"/>
    </marker>
  </defs>

</svg>
